Coordinates
version=1
nRows=60
nColumns=12
inDegrees=yes

Units are S.I. units (second, meters, Newtons, ...)
Angles are in degrees

endheader
time	SC_y	SC_z	SC_x	AC_y	AC_z	AC_x	GH_y	GH_z	GH_yy	EL_x	PS_y
       0.0              -48.11          10.18           59.1          61.42         -11.46           13.5         -135.0           76.5          62.29          119.1          43.04
   0.02867              -48.11          10.18          59.09          61.42         -11.46           13.5         -135.0          76.49          62.25          119.0          43.05
   0.05734              -48.11          10.19          59.09          61.42         -11.46           13.5         -135.0          76.48          62.22          119.0          43.06
   0.08601              -48.11          10.19          59.08          61.42         -11.46           13.5         -135.0          76.47          62.18          119.0          43.07
    0.1147              -48.12          10.19          59.08          61.42         -11.46           13.5         -135.0          76.46          62.14          119.0          43.08
    0.1434              -48.12          10.19          59.07          61.42         -11.46           13.5         -135.0          76.45           62.1          119.0          43.09
     0.172              -48.12          10.19          59.07          61.42         -11.46           13.5         -135.0          76.44          62.06          119.0           43.1
    0.2007              -48.12          10.19          59.06          61.42         -11.46           13.5         -134.9          76.42          62.01          119.0          43.11
    0.2294              -48.12          10.19          59.05          61.42         -11.46           13.5         -134.9          76.41          61.96          119.0          43.13
     0.258              -48.12          10.19          59.04          61.42         -11.47           13.5         -134.9          76.39           61.9          118.9          43.14
    0.2867              -48.12          10.19          59.04          61.42         -11.47           13.5         -134.9          76.38          61.84          118.9          43.16
    0.3154              -48.13          10.19          59.03          61.42         -11.47           13.5         -134.9          76.36          61.78          118.9          43.17
    0.3441              -48.13           10.2          59.02          61.42         -11.47           13.5         -134.9          76.34          61.71          118.9          43.19
    0.3727              -48.13           10.2          59.01          61.42         -11.47           13.5         -134.9          76.32          61.63          118.9          43.21
    0.4014              -48.13           10.2           59.0          61.42         -11.48           13.5         -134.9          76.29          61.55          118.8          43.23
    0.4301              -48.14           10.2          58.99          61.42         -11.48           13.5         -134.9          76.27          61.47          118.8          43.26
    0.4587              -48.14           10.2          58.97          61.42         -11.48           13.5         -134.9          76.24          61.37          118.8          43.28
    0.4874              -48.14           10.2          58.96          61.42         -11.48           13.5         -134.8          76.21          61.27          118.8          43.31
    0.5161              -48.14          10.21          58.95          61.42         -11.49           13.5         -134.8          76.18          61.15          118.7          43.34
    0.5448              -48.15          10.21          58.93          61.42         -11.49           13.5         -134.8          76.15          61.03          118.7          43.38
    0.5734              -48.15          10.21          58.91          61.42         -11.49           13.5         -134.8          76.11          60.89          118.7          43.41
    0.6021              -48.16          10.22          58.89          61.42          -11.5          13.49         -134.8          76.06          60.74          118.6          43.45
    0.6308              -48.16          10.22          58.87          61.42          -11.5          13.49         -134.8          76.02          60.58          118.6           43.5
    0.6594              -48.17          10.22          58.84          61.43         -11.51          13.49         -134.7          75.97           60.4          118.5          43.55
    0.6881              -48.17          10.23          58.82          61.43         -11.51          13.49         -134.7          75.91          60.19          118.5           43.6
    0.7168              -48.18          10.23          58.79          61.43         -11.52          13.49         -134.7          75.84          59.97          118.4          43.66
    0.7455              -48.18          10.24          58.75          61.43         -11.52          13.49         -134.7          75.77          59.71          118.3          43.73
    0.7741              -48.19          10.24          58.72          61.43         -11.53          13.49         -134.6          75.69          59.42          118.2          43.81
    0.8028               -48.2          10.25          58.67          61.43         -11.54          13.49         -134.6           75.6           59.1          118.2          43.89
    0.8315              -48.21          10.26          58.62          61.43         -11.55          13.49         -134.5          75.49          58.73          118.0          43.99
    0.8601              -48.22          10.26          58.57          61.43         -11.56          13.48         -134.5          75.37          58.31          117.9          44.11
    0.8888              -48.24          10.27           58.5          61.43         -11.58          13.48         -134.4          75.24          57.83          117.8          44.24
    0.9175              -48.25          10.29          58.43          61.44         -11.59          13.48         -134.3          75.08          57.28          117.6          44.38
    0.9462              -48.27           10.3          58.34          61.44         -11.61          13.48         -134.3           74.9          56.63          117.5          44.56
    0.9748              -48.29          10.31          58.24          61.44         -11.63          13.47         -134.2          74.68          55.88          117.2          44.76
     1.003              -48.32          10.33          58.12          61.44         -11.65          13.47         -134.0          74.43          54.99          117.0           45.0
     1.032              -48.35          10.35          57.98          61.45         -11.68          13.46         -133.9          74.13          53.93          116.7          45.29
     1.061              -48.38          10.38          57.82          61.45         -11.72          13.46         -133.7          73.77          52.66          116.3          45.63
      1.09              -48.42          10.41          57.61          61.46         -11.76          13.45         -133.6          73.34          51.13          115.9          46.04
     1.118              -48.48          10.45          57.36          61.46         -11.81          13.44         -133.3          72.81          49.25          115.4          46.54
     1.147              -48.54           10.5          57.05          61.47         -11.87          13.43         -133.0          72.15          46.94          114.7          47.17
     1.176              -48.62          10.55          56.67          61.48         -11.95          13.42         -132.6          71.33          44.06          113.9          47.94
     1.204              -48.72          10.63          56.19          61.49         -12.05           13.4         -132.2           70.3          40.42          112.9          48.92
     1.233              -48.85          10.72          55.57          61.51         -12.17          13.38         -131.6          68.99          35.81          111.5          50.16
     1.262              -49.02          10.84          54.79          61.53         -12.33          13.35         -130.8          67.31          29.89          109.9          51.75
      1.29              -49.23          10.99          53.78          61.56         -12.54          13.32         -129.9          65.16          22.31          107.7          53.79
     1.319               -49.5          11.19          52.49          61.59          -12.8          13.27         -128.6          62.41          12.62          105.0           56.4
     1.348              -49.85          11.44          50.87          61.63         -13.13          13.22         -127.1          58.96         0.4337          101.5          59.68
     1.376              -50.26          11.74          48.89          61.68         -13.53          13.15         -125.2          54.75         -14.41           97.3          63.68
     1.405              -50.74          12.09           46.6          61.74         -13.99          13.07         -123.0          49.87         -31.62          92.42          68.31
     1.434              -51.27          12.46          44.12           61.8         -14.49          12.99         -120.6          44.58         -50.26          87.14          73.32
     1.462              -51.79          12.84          41.64          61.87          -15.0           12.9         -118.2          39.29          -68.9          81.85          78.34
     1.491              -52.27          13.19          39.35          61.93         -15.46          12.82         -116.0          34.41         -86.11          76.97          82.97
      1.52              -52.69          13.49          37.38          61.98         -15.86          12.76         -114.1           30.2         -101.0          72.76          86.96
     1.548              -53.03          13.74          35.76          62.02         -16.19           12.7         -112.5          26.75         -113.1           69.3          90.24
     1.577               -53.3          13.93          34.47          62.05         -16.45          12.66         -111.3           24.0         -122.8          66.56          92.85
     1.606              -53.51          14.09          33.46          62.08         -16.66          12.62         -110.3          21.84         -130.4           64.4          94.89
     1.634              -53.68          14.21          32.67           62.1         -16.82          12.59         -109.6          20.17         -136.3          62.73          96.48
     1.663              -53.81           14.3          32.06          62.11         -16.94          12.57         -109.0          18.86         -140.9          61.42          97.72
     1.692              -53.91          14.37          31.57          62.13         -17.04          12.56         -108.5          17.83         -144.6          60.39           98.7
